HIERARCHY
ROOT Hips
{
    OFFSET 6.154644966125488 56.94024848937988 -12.193470001220703
    CHANNELS 6 Xposition Yposition Zposition Zrotation Xrotation Yrotation
    JOINT RightUpLeg
    {
        OFFSET -6.154644966125488 0.0 0.0
        CHANNELS 3 Zrotation Xrotation Yrotation
        JOINT RightLeg
        {
            OFFSET 0.0 -26.456573486328125 0.0
            CHANNELS 3 Zrotation Xrotation Yrotation
            JOINT RightFoot
            {
                OFFSET 0.0 -30.483675003051758 0.0
                CHANNELS 3 Zrotation Xrotation Yrotation
                End Site
                {
                    OFFSET 0.0 0.0 12.193470001220703
                }
            }
        }
    }
    JOINT LeftUpLeg
    {
        OFFSET 6.154644966125488 0.0 0.0
        CHANNELS 3 Zrotation Xrotation Yrotation
        JOINT LeftLeg
        {
            OFFSET 0.0 -26.456573486328125 0.0
            CHANNELS 3 Zrotation Xrotation Yrotation
            JOINT LeftFoot
            {
                OFFSET 0.0 -30.483675003051758 0.0
                CHANNELS 3 Zrotation Xrotation Yrotation
                End Site
                {
                    OFFSET 0.0 0.0 12.193470001220703
                }
            }
        }
    }
    JOINT Spine
    {
        OFFSET 0.0 19.46894645690918 0.0
        CHANNELS 3 Zrotation Xrotation Yrotation
        JOINT Spine3
        {
            OFFSET 0.0 19.795303344726562 0.0
            CHANNELS 3 Zrotation Xrotation Yrotation
            JOINT Neck
            {
                OFFSET 0.0 11.703651428222656 0.0
                CHANNELS 3 Zrotation Xrotation Yrotation
                End Site
                {
                    OFFSET 0.0 4.681460857391357 0.0
                }
            }
            JOINT LeftArm
            {
                OFFSET 9.203409194946289 0.0 0.0
                CHANNELS 3 Zrotation Xrotation Yrotation
                JOINT LeftForeArm
                {
                    OFFSET 24.427261352539062 0.0 0.0
                    CHANNELS 3 Zrotation Xrotation Yrotation
                    JOINT LeftHand
                    {
                        OFFSET 14.680553436279297 0.0 0.0
                        CHANNELS 3 Zrotation Xrotation Yrotation
                        End Site
                        {
                            OFFSET 5.872220993041992 0.0 0.0
                        }
                    }
                }
            }
            JOINT RightArm
            {
                OFFSET -9.203409194946289 0.0 0.0
                CHANNELS 3 Zrotation Xrotation Yrotation
                JOINT RightForeArm
                {
                    OFFSET -24.427261352539062 0.0 0.0
                    CHANNELS 3 Zrotation Xrotation Yrotation
                    JOINT RightHand
                    {
                        OFFSET -14.680553436279297 0.0 0.0
                        CHANNELS 3 Zrotation Xrotation Yrotation
                        End Site
                        {
                            OFFSET -5.872220993041992 0.0 0.0
                        }
                    }
                }
            }
        }
    }
}
MOTION
Frames: 4
Frame Time: 0.03333333333333333
-0.0 69.04319763183594 0.0 5.042208312444556 -0.8914718054448623 -11.363908246884554 -8.69978661983855 -12.986983300543644 14.782088199350424 17.032384820094062 21.404608515602565 -26.555820664237018 -7.95138670365879e-16 -3.4483642953516864e-33 4.969616689786744e-16 -3.356837296401663 -4.258295196288305 -9.063237376104546 -2.515801327907751 14.061532942650395 13.812686595934236 -7.951386703658792e-16 7.58640144977371e-33 -1.0933156717530838e-15 0.8633403202545769 4.344708709957306 -0.3746835346361482 7.596272081898502e-08 1.4376131807655873e-07 -4.066209465953282 -35.25743156613617 8.397634037141783 -36.80048986495252 84.64983241172594 10.30152129880592 171.25796819587558 5.549847559508048e-07 1.9183108172706085e-06 39.8243133843819 5.168401357378215e-15 3.1805546814635168e-15 -1.4345195468663017e-31 -89.86635059716858 -54.44081644196611 -179.51063437512437 1.4729282431310163e-06 -5.687194431617836e-06 -123.59765322627415 0.0 0.0 -7.95138670365879e-16
-0.0 69.04319763183594 0.0 5.198070686607072 -0.9562700487859185 -11.439239226321595 -8.869284494244825 -12.988607419777956 14.964283195072722 17.086132746855284 21.369516508398174 -26.68832656828529 -7.95138670365879e-16 1.9878466759146972e-16 3.67751635044219e-15 -3.5091575738908958 -4.128555845575571 -9.026266425887682 -2.528557794770901 14.109587477224904 13.835917359864517 -1.077613842297402e-35 -2.4848083448933722e-17 -4.9696166897867443e-17 0.9755289118914425 4.310229368443389 -0.3926795270364466 -3.4616065693082697e-07 -5.212273578233495e-07 -3.9083389864451377 -36.11277355244341 8.464608591134022 -37.326481292814485 84.35536350203452 10.043410785359509 171.24437396464378 4.582815247959065e-06 3.078434182296664e-06 39.5475339844684 -5.168401357378214e-15 0.0 0.0 -89.68713152352488 -54.55107962502458 -179.44637489868856 2.3842838089297795e-06 6.096824909313026e-06 -123.21250159444037 0.0 0.0 1.5902773407317584e-15
-0.0 69.04319763183594 0.0 5.178926505573877 -0.9384209880989864 -11.033172999396658 -8.880251678691538 -12.958845255799655 14.932725954892897 17.19073293574587 21.279879997445672 -26.87680993490341 -7.951386703658791e-16 -6.896728590703373e-34 9.939233379573489e-17 -3.089529532164681 -4.1770622438196865 -9.037746169525082 -2.8450360235798273 14.071678309740209 14.032432039599037 3.975693351829396e-16 -1.5902773407317584e-15 -9.93923337957349e-17 0.869175068885668 4.315428766994501 -0.38571703998653367 -1.3119648037024808e-07 -1.5486925622212572e-07 -4.291501959374115 -35.97759162223333 8.475159532800552 -36.948784031300384 84.5342095546553 10.110471805012285 171.23822575019386 1.0112519877307575e-07 3.284957964599251e-07 39.60062038824125 -2.782985346280577e-15 -3.1805546814635168e-15 3.1805546814635168e-15 -89.59046545198647 -54.629554101882974 -179.5185448009868 -5.666286630135874e-06 -3.2002996516934047e-06 -123.56307891943297 -6.3611093629270335e-15 4.4139062980501586e-32 -7.951386703658792e-16
-0.0 69.04319763183594 0.0 5.0067141531361 -0.856978298519611 -11.241173484211075 -8.612479575647908 -12.976961121400961 14.61348641959302 16.87398420481383 21.31045422500299 -26.29112792763934 7.951386703658794e-16 -1.5902773407317588e-15 -5.963540027744096e-16 -2.8996326106037142 -4.305754904920926 -9.002123485532238 -2.8936489930670932 14.126560483795732 14.216941875176945 3.975693351829396e-16 -1.5654292572828246e-15 -2.981770013872047e-16 0.7537764463340287 4.3432622626241 -0.31364475934838004 1.9279825547476575e-07 -3.981222227079074e-07 -4.265540522135732 -35.06540922323682 8.292927855864153 -36.634112855745805 84.26154558802789 9.271297438274786 171.3162593136503 1.4910001846514078e-06 1.3258639542524308e-06 39.28726118112215 3.578124016646456e-15 0.0 0.0 -89.60957869284199 -54.54188133680838 -179.4678490074386 2.3951478903074395e-06 1.102563061418099e-06 -123.49878843588532 4.4139062980501586e-32 -6.3611093629270335e-15 7.951386703658792e-16
